<?xml version="1.0" encoding="UTF-8" standalone="no"?>
<!DOCTYPE svg PUBLIC "-//W3C//DTD SVG 1.1//EN"
 "http://www.w3.org/Graphics/SVG/1.1/DTD/svg11.dtd">
<!-- Generated by graphviz version 9.0.0 (20230911.1827)
 -->
<!-- Title: G Pages: 1 -->
<svg width="581pt" height="447pt"
 viewBox="0.00 0.00 580.88 447.20" xmlns="http://www.w3.org/2000/svg" xmlns:xlink="http://www.w3.org/1999/xlink">
<g id="graph0" class="graph" transform="scale(1 1) rotate(0) translate(4 443.2)">
<title>G</title>
<polygon fill="white" stroke="none" points="-4,4 -4,-443.2 576.88,-443.2 576.88,4 -4,4"/>
<!-- aws_db_instance.postgres -->
<g id="node1" class="node">
<title>aws_db_instance.postgres</title>
<image xlink:href="./inframap-assets/aws/Database/Amazon-RDS.png" width="72px" height="72px" preserveAspectRatio="xMinYMin meet" x="254.125" y="-439.2"/>
<text text-anchor="middle" x="290.12" y="-360.35" font-family="Times,serif" font-size="14.00">aws_db_instance.postgres</text>
</g>
<!-- aws_db_instance.postgres&#45;&gt;aws_db_instance.postgres -->
<g id="edge2" class="edge">
<title>aws_db_instance.postgres&#45;&gt;aws_db_instance.postgres</title>
<path fill="none" stroke="black" d="M390.83,-416.54C401.95,-412.98 409.12,-406.73 409.12,-397.8 409.12,-392.08 406.18,-387.46 401.14,-383.94"/>
<polygon fill="black" stroke="black" points="402.74,-380.82 392.2,-379.71 399.74,-387.15 402.74,-380.82"/>
</g>
<!-- aws_ecs_service.backend -->
<g id="node2" class="node">
<title>aws_ecs_service.backend</title>
<image xlink:href="./inframap-assets/aws/Compute/Amazon-Elastic-Container-Service_Service_light-bg.png" width="72px" height="72px" preserveAspectRatio="xMinYMin meet" x="254.125" y="-320.4"/>
<text text-anchor="middle" x="290.12" y="-241.55" font-family="Times,serif" font-size="14.00">aws_ecs_service.backend</text>
</g>
<!-- aws_db_instance.postgres&#45;&gt;aws_ecs_service.backend -->
<g id="edge1" class="edge">
<title>aws_db_instance.postgres&#45;&gt;aws_ecs_service.backend</title>
<path fill="none" stroke="black" d="M283.68,-356.6C283.4,-348.53 283.31,-339.94 283.42,-331.54"/>
<polygon fill="black" stroke="black" points="286.91,-331.86 283.64,-321.78 279.91,-331.7 286.91,-331.86"/>
</g>
<!-- aws_ecs_service.backend&#45;&gt;aws_db_instance.postgres -->
<g id="edge13" class="edge">
<title>aws_ecs_service.backend&#45;&gt;aws_db_instance.postgres</title>
<path fill="none" stroke="black" d="M296.58,-320.27C296.85,-328.35 296.94,-336.94 296.83,-345.34"/>
<polygon fill="black" stroke="black" points="293.34,-345.01 296.61,-355.09 300.34,-345.17 293.34,-345.01"/>
</g>
<!-- aws_ecs_service.frontend -->
<g id="node3" class="node">
<title>aws_ecs_service.frontend</title>
<image xlink:href="./inframap-assets/aws/Compute/Amazon-Elastic-Container-Service_Service_light-bg.png" width="72px" height="72px" preserveAspectRatio="xMinYMin meet" x="118.125" y="-201.6"/>
<text text-anchor="middle" x="154.12" y="-122.75" font-family="Times,serif" font-size="14.00">aws_ecs_service.frontend</text>
</g>
<!-- aws_ecs_service.backend&#45;&gt;aws_ecs_service.frontend -->
<g id="edge3" class="edge">
<title>aws_ecs_service.backend&#45;&gt;aws_ecs_service.frontend</title>
<path fill="none" stroke="black" d="M236.87,-237.8C225.76,-228.54 214.11,-218.59 203.17,-209.03"/>
<polygon fill="black" stroke="black" points="205.52,-206.44 195.7,-202.47 200.9,-211.7 205.52,-206.44"/>
</g>
<!-- aws_ecs_cluster.main -->
<g id="node4" class="node">
<title>aws_ecs_cluster.main</title>
<image xlink:href="./inframap-assets/aws/Compute/Amazon-Elastic-Container-Service.png" width="72px" height="72px" preserveAspectRatio="xMinYMin meet" x="48.125" y="-82.8"/>
<text text-anchor="middle" x="84.12" y="-3.95" font-family="Times,serif" font-size="14.00">aws_ecs_cluster.main</text>
</g>
<!-- aws_ecs_service.backend&#45;&gt;aws_ecs_cluster.main -->
<g id="edge11" class="edge">
<title>aws_ecs_service.backend&#45;&gt;aws_ecs_cluster.main</title>
<path fill="none" stroke="black" d="M192.74,-274.05C140.29,-266.34 79.64,-247.21 46.12,-201.6 22.95,-170.06 35.72,-126.37 52.46,-92.73"/>
<polygon fill="black" stroke="black" points="55.5,-94.46 57.04,-83.98 49.3,-91.22 55.5,-94.46"/>
</g>
<!-- aws_lb.app -->
<g id="node5" class="node">
<title>aws_lb.app</title>
<image xlink:href="./inframap-assets/aws/Networking_and_Content_Delivery/Elastic-Load-Balancing.png" width="72px" height="72px" preserveAspectRatio="xMinYMin meet" x="254.125" y="-82.8"/>
<text text-anchor="middle" x="290.12" y="-3.95" font-family="Times,serif" font-size="14.00">aws_lb.app</text>
</g>
<!-- aws_ecs_service.backend&#45;&gt;aws_lb.app -->
<g id="edge12" class="edge">
<title>aws_ecs_service.backend&#45;&gt;aws_lb.app</title>
<path fill="none" stroke="black" d="M284.9,-237.77C283.04,-198.04 282.88,-137.12 284.43,-93.88"/>
<polygon fill="black" stroke="black" points="287.93,-94.12 284.84,-83.98 280.93,-93.83 287.93,-94.12"/>
</g>
<!-- aws_cloudfront_distribution.app -->
<g id="node6" class="node">
<title>aws_cloudfront_distribution.app</title>
<image xlink:href="./inframap-assets/aws/Networking_and_Content_Delivery/Amazon-CloudFront.png" width="72px" height="72px" preserveAspectRatio="xMinYMin meet" x="414.125" y="-201.6"/>
<text text-anchor="middle" x="450.12" y="-122.75" font-family="Times,serif" font-size="14.00">aws_cloudfront_distribution.app</text>
</g>
<!-- aws_ecs_service.backend&#45;&gt;aws_cloudfront_distribution.app -->
<g id="edge10" class="edge">
<title>aws_ecs_service.backend&#45;&gt;aws_cloudfront_distribution.app</title>
<path fill="none" stroke="black" d="M338.74,-237.8C351.61,-228.17 365.76,-217.8 379.53,-207.9"/>
<polygon fill="black" stroke="black" points="381.18,-211.02 387.28,-202.35 377.11,-205.32 381.18,-211.02"/>
</g>
<!-- aws_ecs_service.frontend&#45;&gt;aws_ecs_service.backend -->
<g id="edge6" class="edge">
<title>aws_ecs_service.frontend&#45;&gt;aws_ecs_service.backend</title>
<path fill="none" stroke="black" d="M207.47,-201.47C218.58,-210.74 230.23,-220.69 241.17,-230.25"/>
<polygon fill="black" stroke="black" points="238.81,-232.83 248.63,-236.8 243.43,-227.57 238.81,-232.83"/>
</g>
<!-- aws_ecs_service.frontend&#45;&gt;aws_ecs_cluster.main -->
<g id="edge4" class="edge">
<title>aws_ecs_service.frontend&#45;&gt;aws_ecs_cluster.main</title>
<path fill="none" stroke="black" d="M130.03,-119C124.92,-110.47 119.46,-101.36 114.16,-92.51"/>
<polygon fill="black" stroke="black" points="117.18,-90.75 109.04,-83.97 111.18,-94.35 117.18,-90.75"/>
</g>
<!-- aws_ecs_service.frontend&#45;&gt;aws_lb.app -->
<g id="edge5" class="edge">
<title>aws_ecs_service.frontend&#45;&gt;aws_lb.app</title>
<path fill="none" stroke="black" d="M200.93,-119C211.83,-109.64 223.53,-99.59 234.76,-89.95"/>
<polygon fill="black" stroke="black" points="236.78,-92.83 242.09,-83.66 232.22,-87.52 236.78,-92.83"/>
</g>
<!-- aws_lb.app&#45;&gt;aws_ecs_service.backend -->
<g id="edge7" class="edge">
<title>aws_lb.app&#45;&gt;aws_ecs_service.backend</title>
<path fill="none" stroke="black" d="M295.35,-82.47C297.21,-122.14 297.37,-183.05 295.82,-226.33"/>
<polygon fill="black" stroke="black" points="292.33,-226.12 295.42,-236.25 299.32,-226.41 292.33,-226.12"/>
</g>
<!-- aws_cloudfront_distribution.app&#45;&gt;aws_ecs_service.backend -->
<g id="edge9" class="edge">
<title>aws_cloudfront_distribution.app&#45;&gt;aws_ecs_service.backend</title>
<path fill="none" stroke="black" d="M401.41,-201.47C388.53,-211.11 374.39,-221.48 360.62,-231.38"/>
<polygon fill="black" stroke="black" points="358.96,-228.26 352.87,-236.92 363.04,-233.95 358.96,-228.26"/>
</g>
<!-- aws_cloudfront_distribution.app&#45;&gt;aws_lb.app -->
<g id="edge8" class="edge">
<title>aws_cloudfront_distribution.app&#45;&gt;aws_lb.app</title>
<path fill="none" stroke="black" d="M395.06,-119C379.34,-107.53 362.2,-95.01 346.41,-83.49"/>
<polygon fill="black" stroke="black" points="348.65,-80.79 338.51,-77.72 344.53,-86.45 348.65,-80.79"/>
</g>
</g>
</svg>
